<?xml version="1.0" encoding="UTF-8"?><svg xmlns="http://www.w3.org/2000/svg" xmlns:xlink="http://www.w3.org/1999/xlink" contentScriptType="text/ecmascript" width="73.5" zoomAndPan="magnify" contentStyleType="text/css" viewBox="0 0 73.5 73.499998" height="73.499998" preserveAspectRatio="xMidYMid meet" version="1.0"><path fill="rgb(0%, 0%, 86.669922%)" d="M 36.882812 0.800781 C 17 0.800781 0.882812 16.917969 0.882812 36.800781 C 0.882812 56.683594 17 72.800781 36.882812 72.800781 C 56.765625 72.800781 72.882812 56.683594 72.882812 36.800781 C 72.882812 16.917969 56.765625 0.800781 36.882812 0.800781 Z M 36.882812 0.800781 " fill-opacity="1" fill-rule="nonzero"/><path fill="rgb(100%, 100%, 100%)" d="M 42.917969 6.644531 L 27.953125 8.640625 C 27.734375 8.675781 27.515625 8.859375 27.515625 9.078125 L 22.695312 40.957031 C 22.660156 41.320312 22.949219 41.609375 23.316406 41.574219 L 32.367188 40.050781 C 32.734375 39.976562 33.0625 40.339844 32.988281 40.703125 L 26.054688 66.199219 C 25.980469 66.527344 26.199219 66.855469 26.566406 66.855469 C 26.746094 66.855469 26.929688 66.746094 27.039062 66.601562 L 50.914062 25.109375 C 51.132812 24.707031 50.804688 24.238281 50.363281 24.308594 L 37.953125 26.738281 C 37.550781 26.8125 37.222656 26.449219 37.332031 26.050781 L 43.503906 7.335938 C 43.613281 6.972656 43.320312 6.609375 42.917969 6.644531 Z M 42.917969 6.644531 " fill-opacity="1" fill-rule="nonzero"/></svg>